<svg width="51" height="39" xmlns="http://www.w3.org/2000/svg" xmlns:xlink="http://www.w3.org/1999/xlink"><defs><path id="a" d="M0 35h51V0H0z"/></defs><g fill="none" fill-rule="evenodd"><path fill="#CCCBCB" d="M.398 36.593h50.204V2.408H.398z"/><path fill="#FFF" d="M2.79 34.151h45.42V4.85H2.79z"/><path fill="#CCCBCB" d="M42.633 22.756h-3.188v6.511l1.594-1.628 1.594 1.628zM6.773 11.36h37.454V8.92H6.773z"/><g transform="translate(0 2)"><path d="M39.445 21.932c.47.28 1.01.452 1.594.452a3.11 3.11 0 0 0 1.594-.452v-1.176h-3.188v1.176z" fill="#B9B9BA"/><path d="M39.445 21.932v5.336l.797-.814V22.27a3.259 3.259 0 0 1-.797-.339" fill="#DDDDDC"/><path d="M42.633 21.932v5.336l-.797-.814V22.27c.282-.078.55-.192.797-.339" fill="#B9B9BA"/><path d="M44.227 18.314c0 1.798-1.428 3.256-3.188 3.256-1.76 0-3.187-1.458-3.187-3.256 0-1.798 1.427-3.256 3.187-3.256 1.76 0 3.188 1.458 3.188 3.256" fill="#CCCBCB"/><path d="M38.649 18.314c0-1.659 1.219-3.013 2.789-3.215-.133-.017-.263-.041-.399-.041-1.76 0-3.187 1.458-3.187 3.256 0 1.798 1.427 3.256 3.187 3.256.136 0 .266-.024.399-.041-1.57-.203-2.79-1.556-2.79-3.215" fill="#DDDDDC"/><path d="M43.43 18.314c0 1.659-1.22 3.012-2.79 3.215.133.017.263.04.4.04 1.76 0 3.187-1.457 3.187-3.255 0-1.798-1.428-3.256-3.188-3.256-.136 0-.266.024-.398.04 1.57.203 2.789 1.557 2.789 3.216" fill="#B9B9BA"/><path d="M41.836 18.314c0 .45-.357.814-.797.814a.806.806 0 0 1-.797-.814c0-.45.357-.814.797-.814.44 0 .797.364.797.814" fill="#D7E7F6"/><mask id="b" fill="#fff"><use xlink:href="#a"/></mask><path fill="#FFF" mask="url(#b)" d="M.398 34.593h.797V.407H.398z"/><path fill="#B9B9BA" mask="url(#b)" d="M49.805 34.593h.797V.407h-.797z"/><path d="M.398 35.093a.5.5 0 0 1-.5-.5V.407a.5.5 0 0 1 .5-.5h50.204a.5.5 0 0 1 .5.5v34.186a.5.5 0 0 1-.5.5H.398zm.5-1h49.204V.907H.898v33.186z" fill="#434343" fill-rule="nonzero" mask="url(#b)"/><path d="M2.79 32.651a.5.5 0 0 1-.5-.5V2.85a.5.5 0 0 1 .5-.5h45.42a.5.5 0 0 1 .5.5V32.15a.5.5 0 0 1-.5.5H2.79zm44.92-1V3.35H3.29V31.65h44.42z" fill="#434343" fill-rule="nonzero" mask="url(#b)"/><path d="M48.568 3.198a.5.5 0 0 1-.714-.7l2.39-2.441a.5.5 0 1 1 .715.7l-2.39 2.441zM47.854 32.5a.5.5 0 0 1 .714-.699l2.39 2.442a.5.5 0 0 1-.714.7l-2.39-2.442zM2.432 31.801a.5.5 0 0 1 .714.7l-2.39 2.442a.5.5 0 1 1-.715-.7l2.39-2.442zM.041.757a.5.5 0 1 1 .715-.7l2.39 2.442a.5.5 0 0 1-.714.7L.042.756zM6.773 9.86a.5.5 0 0 1-.5-.5V6.92a.5.5 0 0 1 .5-.5h37.454a.5.5 0 0 1 .5.5V9.36a.5.5 0 0 1-.5.5H6.773zm.5-1h36.454V7.42H7.273V8.86zM6.774 15.558a.5.5 0 1 1 0-1H33.07a.5.5 0 0 1 0 1H6.774zM6.774 18.814a.5.5 0 1 1 0-1H33.07a.5.5 0 1 1 0 1H6.774zM6.774 22.07a.5.5 0 0 1 0-1h12.75a.5.5 0 1 1 0 1H6.774zM27.492 27.767a.5.5 0 0 1 0-1h5.578a.5.5 0 1 1 0 1h-5.578zM43.727 18.314c0-1.524-1.206-2.756-2.688-2.756-1.482 0-2.687 1.232-2.687 2.756 0 1.524 1.205 2.756 2.687 2.756 1.482 0 2.688-1.232 2.688-2.756zm1 0c0 2.072-1.649 3.756-3.688 3.756s-3.687-1.684-3.687-3.756 1.648-3.756 3.687-3.756c2.039 0 3.688 1.684 3.688 3.756z" fill="#434343" fill-rule="nonzero" mask="url(#b)"/><path d="M41.836 18.314c0 .45-.357.814-.797.814a.806.806 0 0 1-.797-.814c0-.45.357-.814.797-.814.44 0 .797.364.797.814" fill="#DDDDDC" mask="url(#b)"/><path d="M41.336 18.314a.306.306 0 0 0-.297-.314.306.306 0 0 0-.297.314c0 .175.136.314.297.314a.306.306 0 0 0 .297-.314zm1 0c0 .723-.578 1.314-1.297 1.314-.718 0-1.297-.591-1.297-1.314 0-.723.579-1.314 1.297-1.314.719 0 1.297.59 1.297 1.314zM38.945 22.384a.5.5 0 0 1 1 0v4.883a.5.5 0 0 1-1 0v-4.883zM42.133 22.384a.5.5 0 0 1 1 0v4.883a.5.5 0 0 1-1 0v-4.883z" fill="#434343" fill-rule="nonzero" mask="url(#b)"/><path d="M39.803 27.617a.5.5 0 0 1-.715-.7l1.594-1.627a.5.5 0 0 1 .714.7l-1.593 1.627z" fill="#434343" fill-rule="nonzero" mask="url(#b)"/><path d="M40.682 25.99a.5.5 0 1 1 .714-.7l1.594 1.627a.5.5 0 0 1-.714.7l-1.594-1.628z" fill="#434343" fill-rule="nonzero" mask="url(#b)"/></g></g></svg>