<svg height="37" width="39" xmlns="http://www.w3.org/2000/svg"><g fill="none" fill-rule="evenodd"><path d="M6.6 1.41L1.402 6.695h36.381l-5.198-5.287z" fill="#dcdcdc"/><path d="M6.6 1.41L1.402 6.695h1.299l5.196-5.287z" fill="#fff"/><path d="M32.587 1.409l5.197 5.287h-1.3l-5.196-5.287z" fill="#b9b9ba"/><path d="M1.402 35.773h36.382V6.696H1.402z" fill="#fff"/><path d="M15.695 11.982h7.796V6.696h-7.796z" fill="#dcdcdc"/><path d="M20.893 1.409h-2.6l-2.598 5.287h7.796z" fill="#cccbcb"/><path d="M18.294 1.409l-2.599 5.287h1.3l2.598-5.287z" fill="#dcdcdc"/><path d="M20.893 1.409l2.598 5.287h-1.3l-2.598-5.287zM27.39 33.13h2.598v-2.644H27.39zm5.197 0h2.599v-2.644h-2.6z" fill="#b9b9ba"/><path d="M27.39 33.13h1.299v-2.644h-1.3zm5.197 0h1.3v-2.644h-1.3z" fill="#dddddc"/><path d="M15.695 11.982h1.3V6.696h-1.3z" fill="#fff"/><path d="M1.402 35.773h1.4V6.696h-1.4z" fill="#dcdcdc"/><path d="M22.191 11.982h1.3V6.696h-1.3z" fill="#b9b9ba"/><g fill="#434343" fill-rule="nonzero"><path d="M1.402 36.273a.5.5 0 0 1-.5-.5V6.696a.5.5 0 0 1 .5-.5h36.382a.5.5 0 0 1 .5.5v29.077a.5.5 0 0 1-.5.5zm35.882-1V7.196H1.902v28.077z"/><path d="M32.587.909a.5.5 0 0 1 .356.15l5.198 5.286a.5.5 0 0 1-.357.851H1.402a.5.5 0 0 1-.356-.85l5.197-5.288A.5.5 0 0 1 6.6.908zm-.21 1H6.81L2.595 6.196h33.997z"/><path d="M17.845 1.188a.5.5 0 1 1 .898.441l-2.6 5.288a.5.5 0 1 1-.897-.442zm2.599.442a.5.5 0 0 1 .897-.442l2.6 5.287a.5.5 0 1 1-.898.442z"/><path d="M15.195 6.696a.5.5 0 1 1 1 0v5.286a.5.5 0 1 1-1 0z"/><path d="M15.695 12.483a.5.5 0 0 1 0-1h7.797a.5.5 0 1 1 0 1z"/><path d="M23.991 11.983a.5.5 0 0 1-1 0V6.696a.5.5 0 1 1 1 0zm8.596 21.647a.5.5 0 0 1-.5-.5v-2.644a.5.5 0 0 1 .5-.5h2.599a.5.5 0 0 1 .5.5v2.644a.5.5 0 0 1-.5.5zm2.099-1v-1.644h-1.6v1.644zm-7.296 1a.5.5 0 0 1-.5-.5v-2.644a.5.5 0 0 1 .5-.5h2.598a.5.5 0 0 1 .5.5v2.644a.5.5 0 0 1-.5.5zm2.098-1v-1.644H27.89v1.644zM3.877 31.49a.5.5 0 0 1 0-1h8.044a.5.5 0 0 1 0 1zm0 1.636a.5.5 0 1 1 0-1H7.9a.5.5 0 1 1 0 1zM19.852 16.54a.5.5 0 0 1 0-1c3.926 0 7.105 3.235 7.105 7.22 0 3.984-3.18 7.218-7.105 7.218-3.926 0-7.105-3.234-7.105-7.219a7.244 7.244 0 0 1 2.958-5.861.5.5 0 0 1 .59.807 6.244 6.244 0 0 0-2.548 5.054c0 3.436 2.735 6.22 6.105 6.22s6.105-2.784 6.105-6.22-2.735-6.219-6.105-6.219z"/><path d="M19.88 16.387a.5.5 0 1 1-.668-.745l1.672-1.499a.5.5 0 0 1 .667.745z"/><path d="M19.168 16.342a.5.5 0 1 1 .756-.655l1.58 1.824a.5.5 0 0 1-.755.654z"/></g></g></svg>