<svg width="42" height="41" xmlns="http://www.w3.org/2000/svg" xmlns:xlink="http://www.w3.org/1999/xlink"><defs><path id="a" d="M0 40.981h42V.001H0z"/></defs><g fill="none" fill-rule="evenodd"><path d="M38.16 8.056l-.359-.639-2.29-4.078-1.31-2.33a1.3 1.3 0 0 0-1.792-.495l-.712.419L19.61 8.056h18.55z" fill="#B9B9BA"/><path d="M39.79 8.056l-.507-2.444c-.149-.722-.85-1.189-1.556-1.036l-.801.174-15.224 3.306h18.087z" fill="#DDDDDC"/><path d="M41.672 16.794V31.58c0 .74-.59 1.344-1.312 1.344H1.64c-.723 0-1.313-.605-1.313-1.344V16.794h41.344z" fill="#FFF"/><path fill="#CCCBCB" d="M41.672 12.089v4.705H.328v-4.705H40.36z"/><path d="M41.672 9.4v2.689H.328V9.4c0-.739.59-1.344 1.313-1.344H40.359c.722 0 1.313.605 1.313 1.344M1.64 31.58V16.795H.329V31.58c0 .74.59 1.344 1.313 1.344h1.312c-.722 0-1.312-.605-1.312-1.344" fill="#FFF"/><path d="M2.953 8.056H1.641C.918 8.056.328 8.661.328 9.4v2.689h1.313V9.4c0-.739.59-1.344 1.312-1.344" fill="#FFF"/><path d="M40.353 31.58V16.795h1.313V31.58c0 .74-.591 1.344-1.313 1.344h-1.312c.721 0 1.312-.605 1.312-1.344M39.04 8.056h1.313c.722 0 1.313.605 1.313 1.344v2.689h-1.313V9.4c0-.739-.59-1.344-1.312-1.344" fill="#CCCBCB"/><path d="M3.871 32.925l.359.64 2.29 4.077 1.31 2.33a1.3 1.3 0 0 0 1.792.496l.711-.42 12.088-7.123H3.871z" fill="#B9B9BA"/><path d="M2.241 32.925l.506 2.444c.15.722.85 1.189 1.557 1.036l.801-.174 15.224-3.306H2.24z" fill="#DDDDDC"/><mask id="b" fill="#fff"><use xlink:href="#a"/></mask><path fill="#B9B9BA" mask="url(#b)" d="M40.36 16.794h1.312V12.09h-1.313z"/><path d="M15.862 33.41a.5.5 0 1 1 .21.979l-9.937 2.137-1.727.37a1.813 1.813 0 0 1-2.141-1.43l-.296-1.432a.5.5 0 1 1 .98-.202l.296 1.435c.09.451.523.741.953.65l1.725-.369 9.937-2.137zM26.29 7.537a.5.5 0 1 1-.21-.978l9.784-2.104 1.728-.37c.977-.206 1.942.438 2.148 1.432l.29 1.432a.5.5 0 1 1-.98.198l-.29-1.43c-.094-.453-.53-.744-.96-.654l-1.726.37-9.784 2.104z" fill="#434343" fill-rule="nonzero" mask="url(#b)"/><path d="M-.172 9.4c0-1.013.812-1.844 1.813-1.844H40.36c1 0 1.812.832 1.812 1.844v22.18c0 1.014-.812 1.845-1.812 1.845H1.64c-1 0-1.812-.831-1.812-1.844V9.4zm1 22.18c0 .467.37.845.813.845H40.36c.443 0 .812-.378.812-.844V9.4c0-.466-.37-.845-.812-.845H1.64c-.443 0-.812.378-.812.844v22.18z" fill="#434343" fill-rule="nonzero" mask="url(#b)"/><path d="M5.851 37.54a.5.5 0 0 1 .872-.491l1.509 2.68a.805.805 0 0 0 1.108.307l11.051-6.533a.5.5 0 0 1 .51.86L9.847 40.899a1.806 1.806 0 0 1-2.487-.677l-1.51-2.682zM36.148 3.441a.5.5 0 1 1-.87.492l-1.516-2.681A.8.8 0 0 0 32.66.945L21.61 7.478a.5.5 0 1 1-.509-.86L32.15.085a1.8 1.8 0 0 1 2.483.674l1.515 2.682zM.985 12.589a.5.5 0 1 1 0-1h40.03a.5.5 0 0 1 0 1H.986zM.985 17.294a.5.5 0 0 1 0-1h40.03a.5.5 0 0 1 0 1H.986zM34.241 24.189a.458.458 0 0 0-.443-.466.458.458 0 0 0-.443.466c0 .257.203.466.443.466s.443-.209.443-.466zm1 0c0 .804-.645 1.466-1.443 1.466-.797 0-1.443-.662-1.443-1.466 0-.805.646-1.466 1.443-1.466.798 0 1.443.661 1.443 1.466zM37.07 27.086a.458.458 0 0 0-.443-.466.458.458 0 0 0-.443.466c0 .258.203.466.443.466s.443-.208.443-.466zm1 0c0 .805-.645 1.466-1.443 1.466-.797 0-1.443-.661-1.443-1.466 0-.804.646-1.466 1.443-1.466.798 0 1.443.662 1.443 1.466z" fill="#434343" fill-rule="nonzero" mask="url(#b)"/><path d="M37.208 22.874a.5.5 0 1 1 .716.698l-4.711 4.83a.5.5 0 1 1-.716-.7l4.711-4.828zM31.058 25.627c0-1.172-.72-2.092-1.529-2.092-.809 0-1.529.92-1.529 2.092 0 1.173.72 2.093 1.53 2.093.808 0 1.528-.92 1.528-2.093zm1 0c0 1.679-1.106 3.093-2.529 3.093-1.422 0-2.529-1.414-2.529-3.093 0-1.678 1.107-3.092 2.53-3.092 1.422 0 2.528 1.414 2.528 3.092z" fill="#434343" fill-rule="nonzero" mask="url(#b)"/></g></svg>